
Tinker Bell and the Great Fairy Rescue (2010) NL

Alternatieve titels: TinkerBell: A Midsummer Storm, TinkerBell en de Grote Reddingsoperatie       
        
 
 
  Verenigde Staten
Familie / Animatie

geregisseerd door Bradley Raymond
met de stemmen van Mae Whitman, Pamela Adlon en Lucy Liu

Tijdens een zomer bezoek aan het vaste land, wordt Tinker Bell per ongeluk ontdekt en gevangen genomen door een klein meisje. De andere elfjes, geleid door Vidia, zetten een reddingsmissie op door een zware zomerstorm om Tinker Bell te bevrijden. Tinker Bell ontwikkelt echter een speciale band met het eenzame meisje en is vastbesloten om de relatie tussen haar en haar vader te verbeteren. Maar als Tink hierdoor haar redders wegstuurt, om haar nieuwe vriend te helpen; riskeert ze hiermee haar eigen veiligheid en de toekomst van alle elfjes.


English

Tinker Bell must team up with a rival fairy to keep their existence a secret from humans


volledige retail dvd

Spotinformatie 
Categorie : Beeld 
Formaat : DVD5 
Bron : Retail
Audio : English, Dutch 
Ondertitels : Nederlands (instelbaar)
Engels (instelbaar)

Format                           : MPEG-PS
File size                        : 1 024 MiB
Duration                         : 31mn 44s
Overall bit rate                 : 4 511 Kbps

Video
ID                               : 224 (0xE0)
Format                           : MPEG Video
Format version                   : Version 2
Format profile                   : Main@Main
Format settings, Matrix          : Default
Duration                         : 31mn 43s
Bit rate mode                    : Variable
Bit rate                         : 2 796 Kbps
Nominal bit rate                 : 9 800 Kbps
Width                            : 720 pixels
Height                           : 576 pixels
Display aspect ratio             : 16/9
Frame rate                       : 25.000 fps
Standard                         : Component
Colorimetry                      : 4:2:0
Scan type                        : Progressive
Scan order                       : Top Field First
Bits/(Pixel*Frame)               : 0.270
Stream size                      : 635 MiB (62%)

Audio #1
ID                               : 128 (0x80)
Format                           : AC-3
Format/Info                      : Audio Coding 3
Duration                         : 31mn 44s
Bit rate mode                    : Constant
Bit rate                         : 384 Kbps
Channel(s)                       : 6 channels
Channel positions                : Front: L C R, Surround: L R, LFE
Sampling rate                    : 48.0 KHz
Video delay                      : -688ms
Stream size                      : 87.2 MiB (9%)

Audio #2
ID                               : 129 (0x81)
Format                           : AC-3
Format/Info                      : Audio Coding 3
Duration                         : 31mn 44s
Bit rate mode                    : Constant
Bit rate                         : 384 Kbps
Channel(s)                       : 6 channels
Channel positions                : Front: L C R, Surround: L R, LFE
Sampling rate                    : 48.0 KHz
Video delay                      : -688ms
Stream size                      : 87.2 MiB (9%)

Audio #3
ID                               : 130 (0x82)
Format                           : AC-3
Format/Info                      : Audio Coding 3
Duration                         : 31mn 44s
Bit rate mode                    : Constant
Bit rate                         : 384 Kbps
Channel(s)                       : 6 channels
Channel positions                : Front: L C R, Surround: L R, LFE
Sampling rate                    : 48.0 KHz
Video delay                      : -688ms
Stream size                      : 87.2 MiB (9%)

Audio #4
ID                               : 131 (0x83)
Format                           : AC-3
Format/Info                      : Audio Coding 3
Duration                         : 31mn 44s
Bit rate mode                    : Constant
Bit rate                         : 384 Kbps
Channel(s)                       : 6 channels
Channel positions                : Front: L C R, Surround: L R, LFE
Sampling rate                    : 48.0 KHz
Video delay                      : -688ms
Stream size                      : 87.2 MiB (9%)

Text #1
ID                               : 32 (0x20)
Format                           : RLE
Format/Info                      : Run-length encoding
Video delay                      : -688ms

Text #2
ID                               : 33 (0x21)
Format                           : RLE
Format/Info                      : Run-length encoding
Video delay                      : -688ms

Text #3
ID                               : 34 (0x22)
Format                           : RLE
Format/Info                      : Run-length encoding
Video delay                      : -688ms

Text #4
ID                               : 35 (0x23)
Format                           : RLE
Format/Info                      : Run-length encoding
Video delay                      : -688ms

Text #5
ID                               : 36 (0x24)
Format                           : RLE
Format/Info                      : Run-length encoding
Video delay                      : -688ms

Text #6
ID                               : 37 (0x25)
Format                           : RLE
Format/Info                      : Run-length encoding
Video delay                      : -688ms

Text #7
ID                               : 38 (0x26)
Format                           : RLE
Format/Info                      : Run-length encoding
Video delay                      : -688ms

Text #8
ID                               : 39 (0x27)
Format                           : RLE
Format/Info                      : Run-length encoding
Video delay                      : -688ms

Text #9
ID                               : 40 (0x28)
Format                           : RLE
Format/Info                      : Run-length encoding
Video delay                      : -688ms

Text #10
ID                               : 41 (0x29)
Format                           : RLE
Format/Info                      : Run-length encoding
Video delay                      : -688ms

Menu
Format                           : DVD-Video

 
Genre : Animatie
Kinderfilm
 
Weblink :  http://www.moviemeter.nl/film/65388
Weblink :  http://www.imdb.com/title/tt1216515
      
******************************************

Brought to you by 


2Lions Team

meer zien??
Kom dan eens kijken op ons forum 
                  
http://www.2lions-site.nl


2Lions the site to be for all your Dutch MOVIES and more

******************************************


DON T HIT AND RUN Niet gelijk afhaken als de FILM binnen is blijf seeden. 

Don`t quit after you finished the download, but keep seeding


There are fake torrents from uploaders who use our team name.
Those are not ours, or members from our team.
We 2Lions-Team are not responsible for the fake posts on our name

Wij 2Lions-Team zijn niet verantwoordelijk voor die zieke FAKE posten die op onze naam worden gedaan



Please check our site !!!
                 
http://www.2lions-site.nl


 
 
 
